<?xml version="1.0" encoding="UTF-8" standalone="no"?>
<!-- Converted with SVG Converter - Version 0.9.5 (Compiled Mon May 30 09:08:51 2011) - Copyright (C) 2011 Nokia -->

<svg
   xmlns:dc="http://purl.org/dc/elements/1.1/"
   xmlns:cc="http://creativecommons.org/ns#"
   xmlns:rdf="http://www.w3.org/1999/02/22-rdf-syntax-ns#"
   xmlns:svg="http://www.w3.org/2000/svg"
   xmlns="http://www.w3.org/2000/svg"
   xmlns:sodipodi="http://sodipodi.sourceforge.net/DTD/sodipodi-0.dtd"
   xmlns:inkscape="http://www.inkscape.org/namespaces/inkscape"
   width="57"
   x="0px"
   version="1.1"
   y="0px"
   height="57"
   viewBox="0 0 57 57"
   xml:space="preserve"
   id="svg2"
   inkscape:version="0.48.2 r9819"
   sodipodi:docname="internet_converted.svg"><metadata
   id="metadata25"><rdf:RDF><cc:Work
       rdf:about=""><dc:format>image/svg+xml</dc:format><dc:type
         rdf:resource="http://purl.org/dc/dcmitype/StillImage" /></cc:Work></rdf:RDF></metadata><defs
   id="defs23" /><sodipodi:namedview
   pagecolor="#ffffff"
   bordercolor="#666666"
   borderopacity="1"
   objecttolerance="10"
   gridtolerance="10"
   guidetolerance="10"
   inkscape:pageopacity="0"
   inkscape:pageshadow="2"
   inkscape:window-width="640"
   inkscape:window-height="480"
   id="namedview21"
   showgrid="false"
   fit-margin-left="-5"
   fit-margin-right="-5"
   fit-margin-top="0"
   fit-margin-bottom="0"
   inkscape:showpageshadow="false"
   showborder="true"
   inkscape:zoom="4.1403509"
   inkscape:cx="28.5"
   inkscape:cy="28.5"
   inkscape:window-x="0"
   inkscape:window-y="0"
   inkscape:window-maximized="0"
   inkscape:current-layer="svg2" />
 <rect
   width="67"
   height="57"
   id="rect4"
   x="-5"
   y="0"
   style="fill:none" />
 <path
   d="M 28,51 C 15.317,51 5,40.682 5,28 5,15.318 15.317,5 28,5 40.683,5 51,15.318 51,28 51,40.682 40.683,51 28,51 l 0,0 z m -7.854,-6.371 c 0.125,-0.002 0.208,-0.025 0.297,-0.068 0.102,-0.05 0.146,-0.093 0.151,-0.104 0.009,-0.021 0.01,-0.104 0.011,-0.146 0.006,-0.162 0.012,-0.299 0.054,-0.467 0.044,-0.177 0.044,-0.412 0.044,-0.64 -0.005,-0.29 -0.011,-0.567 0.055,-0.821 0.07,-0.246 0.161,-0.443 0.261,-0.648 0.067,-0.141 0.141,-0.289 0.197,-0.457 l 0.111,-0.327 c 0.243,-0.755 0.584,-1.813 1.219,-2.441 0.224,-0.231 0.52,-0.396 0.758,-0.527 0.436,-0.247 0.713,-0.421 0.845,-0.818 0.064,-0.196 0.067,-0.419 0.07,-0.657 0,-0.293 0,-0.637 0.153,-0.98 0.065,-0.17 0.162,-0.383 0.26,-0.597 l 0.07,-0.153 c 0.689,-1.502 1.049,-2.47 -0.116,-3.527 -0.287,-0.264 -0.697,-0.502 -1.258,-0.734 -0.819,-0.339 -1.824,-0.585 -2.559,-0.766 0,0 -0.63,-0.16 -0.782,-0.203 -0.281,-0.076 -0.591,-0.115 -0.909,-0.115 -0.929,0 -1.801,0.345 -2.275,0.9 -0.351,0.41 -0.479,0.922 -0.382,1.518 0.128,0.83 0.71,1.307 1.383,1.857 0.678,0.555 1.351,1.106 1.62,2.02 0.35,1.175 0.134,2.394 -0.057,3.469 -0.05,0.291 -0.092,0.526 -0.123,0.752 -0.164,1.086 0.076,2.597 0.235,3.597 0.065,0.413 0.202,0.753 0.378,0.947 l 0.289,0.136 z m 15.625,-9.552 c 0.167,0.468 0.382,0.692 0.65,0.692 0.608,0 1.768,-1.035 2.581,-2.707 0.009,-0.018 0.019,-0.035 0.028,-0.053 0.463,-1.053 0.961,-1.538 1.443,-2.008 l 0.068,-0.068 c 0.158,-0.158 0.32,-0.318 0.481,-0.499 1.223,-1.371 1.598,-2.366 1.604,-4.255 l 0.008,-0.406 c 0.018,-0.564 0.023,-0.751 -0.327,-1.112 -0.266,-0.271 -0.678,-0.447 -1.076,-0.618 -0.436,-0.181 -0.982,-0.408 -1.392,-0.842 -0.924,-0.965 -1.119,-2.355 -1.153,-3.097 -0.045,-0.96 0.092,-1.534 0.443,-1.86 0.104,-0.097 0.229,-0.171 0.365,-0.216 0.102,-0.034 0.243,-0.055 0.351,-0.055 0.461,0 0.972,0.147 1.709,0.493 0.118,0.05 0.26,0.119 0.4,0.187 l 0.339,0.163 c 0.323,0.156 0.648,0.315 1.006,0.447 0.135,0.046 0.307,0.101 0.489,0.155 0.19,0.059 0.385,0.118 0.574,0.184 -1.942,-3.781 -5.093,-6.756 -8.979,-8.463 -0.104,0.105 -0.214,0.331 -0.33,0.569 -0.178,0.383 -0.345,0.704 -0.672,0.893 -0.121,0.07 -0.256,0.114 -0.396,0.129 -0.924,0.098 -1.11,0.255 -1.139,0.286 h 0.001 c 0.046,0 0.251,0.293 1.6,0.923 0.306,0.145 0.579,0.232 0.82,0.312 1.047,0.329 1.528,0.618 1.733,1.951 0.115,0.771 0.006,1.339 -0.335,1.741 -0.481,0.555 -1.292,0.618 -1.86,0.618 -0.436,0 -0.913,-0.043 -1.395,-0.089 l -1.157,-0.1 c -0.211,-0.019 -0.401,-0.038 -0.581,-0.038 -0.492,0 -0.9,0.109 -1.525,0.668 -0.934,0.843 -1.529,1.706 -1.55,2.249 -0.047,1.333 0.802,1.851 2.204,2.544 0.646,0.318 1.195,0.588 1.641,0.979 0.39,0.357 0.626,0.841 0.855,1.307 0.157,0.33 0.284,0.598 0.433,0.799 0.332,0.478 0.57,0.798 1.003,1.126 0.163,0.121 0.354,0.208 0.552,0.293 0.466,0.209 0.98,0.44 1.194,1.125 0.253,0.813 -0.134,1.818 -0.444,2.627 -0.071,0.183 -0.126,0.328 -0.169,0.452 -0.293,0.849 -0.206,1.623 -0.113,2.442 l 0.018,0.132 z M 9.929,29.053 c 0.655,0.401 0.908,0.557 1.567,0.557 0.18,0 0.39,-0.011 0.634,-0.034 0.588,-0.06 1.938,-0.194 1.992,-0.727 0.048,-0.485 -0.688,-1.138 -1.336,-1.714 -1.027,-0.914 -1.63,-1.513 -1.518,-2.279 0.048,-0.459 0.433,-0.883 1.172,-1.256 0.624,-0.305 1.265,-0.41 1.885,-0.512 0.742,-0.116 1.5,-0.234 2.126,-0.724 0.709,-0.552 1.234,-1.206 1.79,-1.898 0.951,-1.189 1.91,-2.389 3.703,-2.846 0.225,-0.052 0.616,-0.104 1.109,-0.161 1.144,-0.142 3.541,-0.44 3.994,-1.097 0.06,-0.086 0.073,-0.16 0.049,-0.257 -0.144,-0.345 -1.784,-1.05 -5.095,-1.195 l -0.158,0 c -0.7,0 -1.347,0.149 -2.03,0.308 l -0.176,0.042 c -0.22,0.052 -0.441,0.104 -0.67,0.148 -0.533,0.109 -1.082,0.167 -1.577,0.167 -0.998,0 -1.789,-0.225 -2.315,-0.653 C 11.537,18.41 9.59,23.043 9.59,28 c 0,0.27 0.015,0.532 0.033,0.795 l 0.006,0.09 0.3,0.168 z"
   id="path6"
   inkscape:connector-curvature="0"
   style="fill-opacity:0.1" />
 <path
   d="M 28,7 C 15.867,7 6,16.871 6,29 6,41.133 15.867,51 28,51 40.129,51 50,41.133 50,29 50,16.871 40.129,7 28,7 M 12.227,31.57 c -0.281,0.027 -0.523,0.039 -0.73,0.039 -0.945,0 -1.387,-0.273 -2.055,-0.684 L 9.071,30.718 C 8.829,30.628 8.661,30.405 8.645,30.148 L 8.625,29.863 C 8.605,29.578 8.59,29.293 8.59,29 c 0,-5.34 2.145,-10.328 6.039,-14.039 0.121,-0.113 0.281,-0.176 0.445,-0.176 h 0.039 c 0.176,0.008 0.344,0.094 0.457,0.227 0.305,0.363 0.953,0.563 1.82,0.563 0.438,0 0.926,-0.055 1.387,-0.148 0.262,-0.051 0.516,-0.113 0.766,-0.172 0.727,-0.168 1.469,-0.344 2.301,-0.344 h 0.168 c 0.23,0.012 5.625,0.195 6.055,1.953 0.094,0.375 0.027,0.746 -0.195,1.066 -0.656,0.953 -2.598,1.262 -4.703,1.523 -0.441,0.051 -0.793,0.094 -0.977,0.137 -1.473,0.375 -2.25,1.352 -3.152,2.48 -0.574,0.715 -1.164,1.453 -1.973,2.082 -0.82,0.641 -1.754,0.793 -2.578,0.922 -0.57,0.094 -1.117,0.184 -1.598,0.418 -0.48,0.242 -0.625,0.434 -0.633,0.508 -0.043,0.293 0.73,0.977 1.191,1.387 0.867,0.77 1.766,1.566 1.668,2.563 -0.137,1.351 -1.918,1.523 -2.89,1.62 m 13.386,4.618 c -0.113,0.25 -0.23,0.496 -0.328,0.746 -0.066,0.148 -0.066,0.352 -0.066,0.582 -0.004,0.289 -0.008,0.617 -0.121,0.961 -0.258,0.781 -0.84,1.113 -1.309,1.379 -0.211,0.117 -0.41,0.23 -0.539,0.363 -0.453,0.449 -0.746,1.34 -0.977,2.055 l -0.109,0.32 c -0.07,0.211 -0.16,0.398 -0.246,0.578 -0.074,0.152 -0.145,0.297 -0.191,0.461 -0.031,0.121 -0.027,0.328 -0.023,0.531 0,0.289 0.004,0.613 -0.074,0.922 -0.02,0.078 -0.02,0.148 -0.023,0.238 -0.004,0.277 -0.016,0.789 -0.727,1.137 -0.234,0.113 -0.473,0.172 -0.711,0.172 -0.027,0 -0.156,-0.008 -0.184,-0.012 -0.066,-0.008 -0.133,-0.023 -0.195,-0.055 l -0.43,-0.207 c -0.055,-0.031 -0.105,-0.066 -0.152,-0.105 -0.48,-0.457 -0.652,-1.16 -0.715,-1.555 -0.18,-1.129 -0.422,-2.68 -0.238,-3.891 0.035,-0.254 0.082,-0.52 0.129,-0.789 0.18,-1.016 0.363,-2.066 0.082,-3.012 -0.184,-0.621 -0.691,-1.035 -1.277,-1.516 -0.73,-0.598 -1.566,-1.273 -1.754,-2.484 -0.145,-0.887 0.066,-1.691 0.609,-2.328 0.668,-0.781 1.801,-1.25 3.035,-1.25 0.406,0 0.801,0.051 1.18,0.152 0.223,0.063 0.48,0.125 0.75,0.195 0.813,0.199 1.824,0.449 2.703,0.813 0.66,0.273 1.168,0.57 1.547,0.918 1.768,1.606 0.983,3.309 0.354,4.681 M 45.137,22.035 c -0.152,0 -0.301,-0.051 -0.422,-0.152 -0.242,-0.215 -0.777,-0.375 -1.211,-0.508 -0.195,-0.059 -0.379,-0.117 -0.551,-0.176 -0.441,-0.164 -0.84,-0.363 -1.238,-0.555 -0.191,-0.09 -0.383,-0.188 -0.582,-0.273 -0.559,-0.262 -0.969,-0.398 -1.285,-0.398 -0.012,0 -0.023,0 -0.035,0.004 0,0 -0.168,0.156 -0.125,1.082 0.027,0.598 0.176,1.719 0.883,2.457 0.25,0.266 0.637,0.434 1.051,0.605 0.465,0.199 0.996,0.426 1.406,0.844 0.645,0.664 0.629,1.203 0.609,1.828 l -0.008,0.391 c -0.008,2.129 -0.48,3.371 -1.859,4.918 -0.199,0.223 -0.398,0.418 -0.594,0.613 -0.449,0.438 -0.844,0.82 -1.215,1.672 -0.027,0.055 -0.055,0.109 -0.059,0.113 -0.766,1.574 -2.176,3.27 -3.48,3.27 -0.43,0 -1.207,-0.184 -1.613,-1.418 -0.016,-0.043 -0.023,-0.09 -0.027,-0.133 l -0.02,-0.164 c -0.102,-0.902 -0.199,-1.832 0.164,-2.887 0.047,-0.133 0.105,-0.289 0.168,-0.449 0.246,-0.641 0.586,-1.512 0.434,-2 -0.074,-0.238 -0.219,-0.316 -0.637,-0.504 -0.234,-0.102 -0.5,-0.223 -0.758,-0.414 -0.547,-0.414 -0.848,-0.816 -1.203,-1.328 -0.211,-0.285 -0.367,-0.617 -0.52,-0.938 -0.191,-0.391 -0.387,-0.793 -0.625,-1.012 -0.355,-0.313 -0.863,-0.559 -1.402,-0.824 -1.266,-0.625 -2.855,-1.398 -2.781,-3.488 0.043,-1.141 1.199,-2.34 1.883,-2.957 0.73,-0.652 1.367,-0.922 2.191,-0.922 0.262,0 0.543,0.031 0.867,0.059 l 0.953,0.082 c 0.453,0.043 0.902,0.086 1.313,0.086 0.574,0 0.945,-0.09 1.098,-0.266 0.176,-0.207 0.156,-0.629 0.109,-0.941 -0.133,-0.863 -0.273,-0.906 -0.973,-1.125 -0.297,-0.098 -0.637,-0.203 -1.016,-0.383 -1.422,-0.664 -2.273,-1.238 -2.145,-2.035 0.133,-0.773 1.082,-0.977 2,-1.074 0.074,-0.043 0.199,-0.305 0.273,-0.465 0.145,-0.297 0.309,-0.633 0.605,-0.914 l 0.16,-0.129 c 0.113,-0.098 0.258,-0.145 0.402,-0.145 0.09,0 0.172,0.016 0.258,0.051 4.531,1.93 8.133,5.48 10.145,9.996 0.125,0.273 0.043,0.602 -0.203,0.781 -0.116,0.082 -0.249,0.125 -0.385,0.125"
   id="path8"
   inkscape:connector-curvature="0"
   style="fill-opacity:0.3;stroke-opacity:0.3" />
 <linearGradient
   id="SVGID_1_"
   y1="50"
   x1="33.0005"
   y2="6.0005002"
   gradientUnits="userSpaceOnUse"
   x2="33.0005"
   gradientTransform="translate(-5,0)">
  <stop
   offset="0"
   style="stop-color:#D0CBC5"
   id="stop11" />
  <stop
   offset="0.5031"
   style="stop-color:#FAFCEF"
   id="stop13" />
  <stop
   offset="0.9693"
   style="stop-color:#FFFFFF"
   id="stop15" />
 </linearGradient>
 <path
   d="M 28,6 C 15.867,6 6,15.871 6,28 6,40.133 15.867,50 28,50 40.129,50 50,40.133 50,28 50,15.871 40.129,6 28,6 M 12.227,30.57 c -0.281,0.027 -0.523,0.039 -0.73,0.039 -0.945,0 -1.387,-0.273 -2.055,-0.684 L 9.071,29.718 C 8.829,29.628 8.661,29.405 8.645,29.148 L 8.625,28.863 C 8.605,28.578 8.59,28.293 8.59,28 c 0,-5.34 2.145,-10.328 6.039,-14.039 0.121,-0.113 0.281,-0.176 0.445,-0.176 h 0.039 c 0.176,0.008 0.344,0.094 0.457,0.227 0.305,0.363 0.953,0.563 1.82,0.563 0.438,0 0.926,-0.055 1.387,-0.148 0.262,-0.051 0.516,-0.113 0.766,-0.172 0.727,-0.168 1.469,-0.344 2.301,-0.344 h 0.168 c 0.23,0.012 5.625,0.195 6.055,1.953 0.094,0.375 0.027,0.746 -0.195,1.066 -0.656,0.953 -2.598,1.262 -4.703,1.523 -0.441,0.051 -0.793,0.094 -0.977,0.137 -1.473,0.375 -2.25,1.352 -3.152,2.48 -0.574,0.715 -1.164,1.453 -1.973,2.082 -0.82,0.641 -1.754,0.793 -2.578,0.922 -0.57,0.094 -1.117,0.184 -1.598,0.418 -0.48,0.242 -0.625,0.434 -0.633,0.508 -0.043,0.293 0.73,0.977 1.191,1.387 0.867,0.77 1.766,1.566 1.668,2.563 -0.137,1.351 -1.918,1.523 -2.89,1.62 m 13.386,4.618 c -0.113,0.25 -0.23,0.496 -0.328,0.746 -0.066,0.148 -0.066,0.352 -0.066,0.582 -0.004,0.289 -0.008,0.617 -0.121,0.961 -0.258,0.781 -0.84,1.113 -1.309,1.379 -0.211,0.117 -0.41,0.23 -0.539,0.363 -0.453,0.449 -0.746,1.34 -0.977,2.055 l -0.109,0.32 c -0.07,0.211 -0.16,0.398 -0.246,0.578 -0.074,0.152 -0.145,0.297 -0.191,0.461 -0.031,0.121 -0.027,0.328 -0.023,0.531 0,0.289 0.004,0.613 -0.074,0.922 -0.02,0.078 -0.02,0.148 -0.023,0.238 -0.004,0.277 -0.016,0.789 -0.727,1.137 -0.234,0.113 -0.473,0.172 -0.711,0.172 -0.027,0 -0.156,-0.008 -0.184,-0.012 -0.066,-0.008 -0.133,-0.023 -0.195,-0.055 l -0.43,-0.207 c -0.055,-0.031 -0.105,-0.066 -0.152,-0.105 -0.48,-0.457 -0.652,-1.16 -0.715,-1.555 -0.18,-1.129 -0.422,-2.68 -0.238,-3.891 0.035,-0.254 0.082,-0.52 0.129,-0.789 0.18,-1.016 0.363,-2.066 0.082,-3.012 -0.184,-0.621 -0.691,-1.035 -1.277,-1.516 -0.73,-0.598 -1.566,-1.273 -1.754,-2.484 -0.145,-0.887 0.066,-1.691 0.609,-2.328 0.668,-0.781 1.801,-1.25 3.035,-1.25 0.406,0 0.801,0.051 1.18,0.152 0.223,0.063 0.48,0.125 0.75,0.195 0.813,0.199 1.824,0.449 2.703,0.813 0.66,0.273 1.168,0.57 1.547,0.918 1.768,1.606 0.983,3.309 0.354,4.681 M 45.137,21.035 c -0.152,0 -0.301,-0.051 -0.422,-0.152 -0.242,-0.215 -0.777,-0.375 -1.211,-0.508 -0.195,-0.059 -0.379,-0.117 -0.551,-0.176 -0.441,-0.164 -0.84,-0.363 -1.238,-0.555 -0.191,-0.09 -0.383,-0.188 -0.582,-0.273 -0.559,-0.262 -0.969,-0.398 -1.285,-0.398 -0.012,0 -0.023,0 -0.035,0.004 0,0 -0.168,0.156 -0.125,1.082 0.027,0.598 0.176,1.719 0.883,2.457 0.25,0.266 0.637,0.434 1.051,0.605 0.465,0.199 0.996,0.426 1.406,0.844 0.645,0.664 0.629,1.203 0.609,1.828 l -0.008,0.391 c -0.008,2.129 -0.48,3.371 -1.859,4.918 -0.199,0.223 -0.398,0.418 -0.594,0.613 -0.449,0.438 -0.844,0.82 -1.215,1.672 -0.027,0.055 -0.055,0.109 -0.059,0.113 -0.766,1.574 -2.176,3.27 -3.48,3.27 -0.43,0 -1.207,-0.184 -1.613,-1.418 -0.016,-0.043 -0.023,-0.09 -0.027,-0.133 l -0.02,-0.164 c -0.102,-0.902 -0.199,-1.832 0.164,-2.887 0.047,-0.133 0.105,-0.289 0.168,-0.449 0.246,-0.641 0.586,-1.512 0.434,-2 -0.074,-0.238 -0.219,-0.316 -0.637,-0.504 -0.234,-0.102 -0.5,-0.223 -0.758,-0.414 -0.547,-0.414 -0.848,-0.816 -1.203,-1.328 -0.211,-0.285 -0.367,-0.617 -0.52,-0.938 -0.191,-0.391 -0.387,-0.793 -0.625,-1.012 -0.355,-0.313 -0.863,-0.559 -1.402,-0.824 -1.266,-0.625 -2.855,-1.398 -2.781,-3.488 0.043,-1.141 1.199,-2.34 1.883,-2.957 0.73,-0.652 1.367,-0.922 2.191,-0.922 0.262,0 0.543,0.031 0.867,0.059 l 0.953,0.082 c 0.453,0.043 0.902,0.086 1.313,0.086 0.574,0 0.945,-0.09 1.098,-0.266 0.176,-0.207 0.156,-0.629 0.109,-0.941 -0.133,-0.863 -0.273,-0.906 -0.973,-1.125 -0.297,-0.098 -0.637,-0.203 -1.016,-0.383 -1.422,-0.664 -2.273,-1.238 -2.145,-2.035 0.133,-0.773 1.082,-0.977 2,-1.074 0.074,-0.043 0.199,-0.305 0.273,-0.465 0.145,-0.297 0.309,-0.633 0.605,-0.914 l 0.16,-0.129 c 0.113,-0.098 0.258,-0.145 0.402,-0.145 0.09,0 0.172,0.016 0.258,0.051 4.531,1.93 8.133,5.48 10.145,9.996 0.125,0.273 0.043,0.602 -0.203,0.781 -0.116,0.082 -0.249,0.125 -0.385,0.125"
   id="path17"
   inkscape:connector-curvature="0"
   style="fill:url(#SVGID_1_)" />
 <path
   d="m 25.613,35.188 c -0.113,0.25 -0.23,0.496 -0.328,0.746 -0.066,0.148 -0.066,0.352 -0.066,0.582 -0.004,0.289 -0.008,0.617 -0.121,0.961 -0.258,0.781 -0.84,1.113 -1.309,1.379 -0.211,0.117 -0.41,0.23 -0.539,0.363 -0.453,0.449 -0.746,1.34 -0.977,2.055 l -0.109,0.32 c -0.07,0.211 -0.16,0.398 -0.246,0.578 -0.074,0.152 -0.145,0.297 -0.191,0.461 -0.031,0.121 -0.027,0.328 -0.023,0.531 0,0.289 0.004,0.613 -0.074,0.922 -0.02,0.078 -0.02,0.148 -0.023,0.238 -0.004,0.277 -0.016,0.789 -0.727,1.137 -0.234,0.113 -0.473,0.172 -0.711,0.172 -0.027,0 -0.156,-0.008 -0.184,-0.012 -0.066,-0.008 -0.133,-0.023 -0.195,-0.055 l -0.43,-0.207 c -0.055,-0.031 -0.105,-0.066 -0.152,-0.105 -0.48,-0.457 -0.652,-1.16 -0.715,-1.555 -0.108,-0.684 -0.229,-1.519 -0.275,-2.342 -0.063,1.107 0.121,2.374 0.275,3.342 0.063,0.395 0.234,1.098 0.715,1.555 0.047,0.039 0.098,0.074 0.152,0.105 l 0.43,0.207 c 0.063,0.031 0.129,0.047 0.195,0.055 0.027,0.004 0.156,0.012 0.184,0.012 0.238,0 0.477,-0.059 0.711,-0.172 0.711,-0.348 0.723,-0.859 0.727,-1.137 0.004,-0.09 0.004,-0.16 0.023,-0.238 0.078,-0.309 0.074,-0.633 0.074,-0.922 -0.004,-0.203 -0.008,-0.41 0.023,-0.531 0.047,-0.164 0.117,-0.309 0.191,-0.461 0.086,-0.18 0.176,-0.367 0.246,-0.578 l 0.109,-0.32 c 0.23,-0.715 0.523,-1.605 0.977,-2.055 0.129,-0.133 0.328,-0.246 0.539,-0.363 0.469,-0.266 1.051,-0.598 1.309,-1.379 0.113,-0.344 0.117,-0.672 0.121,-0.961 0,-0.23 0,-0.434 0.066,-0.582 0.098,-0.25 0.215,-0.496 0.328,-0.746 0.403,-0.879 0.867,-1.895 0.684,-2.934 -0.11,0.684 -0.411,1.34 -0.684,1.934 z m -7.034,2.455 c 0.049,-0.561 0.04,-1.114 -0.114,-1.635 -0.184,-0.621 -0.691,-1.035 -1.277,-1.516 -0.726,-0.594 -1.553,-1.266 -1.748,-2.46 -0.049,0.312 -0.062,0.635 -0.006,0.976 0.188,1.211 1.023,1.887 1.754,2.484 0.586,0.48 1.094,0.895 1.277,1.516 0.061,0.206 0.093,0.42 0.114,0.635 z m 9.487,-20.78 c -0.014,-0.057 -0.047,-0.107 -0.07,-0.16 -0.034,0.078 -0.074,0.154 -0.125,0.227 -0.656,0.953 -2.598,1.262 -4.703,1.523 -0.441,0.051 -0.793,0.094 -0.977,0.137 -1.473,0.375 -2.25,1.352 -3.152,2.48 -0.574,0.715 -1.164,1.453 -1.973,2.082 -0.82,0.641 -1.754,0.793 -2.578,0.922 -0.57,0.094 -1.117,0.184 -1.598,0.418 -0.48,0.242 -0.625,0.434 -0.633,0.508 -0.021,0.143 0.153,0.379 0.39,0.631 0.071,-0.045 0.146,-0.09 0.243,-0.139 0.48,-0.234 1.027,-0.324 1.598,-0.418 0.824,-0.129 1.758,-0.281 2.578,-0.922 0.809,-0.629 1.398,-1.367 1.973,-2.082 0.902,-1.129 1.68,-2.105 3.152,-2.48 0.184,-0.043 0.535,-0.086 0.977,-0.137 2.105,-0.262 4.047,-0.57 4.703,-1.523 0.223,-0.321 0.289,-0.692 0.195,-1.067 z M 28,6 C 15.867,6 6,15.871 6,28 6,28.168 6.009,28.333 6.013,28.5 6.28,16.602 16.035,7 28,7 39.961,7 49.72,16.602 49.987,28.5 49.991,28.333 50,28.168 50,28 50,15.871 40.129,6 28,6 z M 12.227,30.57 c -0.281,0.027 -0.523,0.039 -0.73,0.039 -0.945,0 -1.387,-0.273 -2.055,-0.684 L 9.071,29.718 C 8.829,29.628 8.661,29.405 8.645,29.148 L 8.625,28.863 C 8.618,28.76 8.618,28.655 8.612,28.552 8.609,28.702 8.59,28.85 8.59,29 c 0,0.293 0.016,0.578 0.035,0.863 l 0.02,0.285 c 0.016,0.258 0.184,0.48 0.426,0.57 l 0.371,0.207 c 0.668,0.41 1.109,0.684 2.055,0.684 0.207,0 0.449,-0.012 0.73,-0.039 0.973,-0.098 2.754,-0.27 2.891,-1.621 0.023,-0.236 -0.014,-0.46 -0.088,-0.676 -0.375,1.047 -1.918,1.208 -2.803,1.297 z m 29.543,0.532 c -0.199,0.223 -0.398,0.418 -0.594,0.613 -0.449,0.438 -0.844,0.82 -1.215,1.672 -0.027,0.055 -0.055,0.109 -0.059,0.113 -0.766,1.574 -2.176,3.27 -3.48,3.27 -0.43,0 -1.207,-0.184 -1.613,-1.418 -0.016,-0.043 -0.023,-0.09 -0.027,-0.133 l -0.02,-0.164 c -0.025,-0.223 -0.05,-0.447 -0.067,-0.674 -0.04,0.58 0.007,1.134 0.067,1.674 l 0.02,0.164 c 0.004,0.043 0.012,0.09 0.027,0.133 0.406,1.234 1.184,1.418 1.613,1.418 1.305,0 2.715,-1.695 3.48,-3.27 0.004,-0.004 0.031,-0.059 0.059,-0.113 0.371,-0.852 0.766,-1.234 1.215,-1.672 0.195,-0.195 0.395,-0.391 0.594,-0.613 1.379,-1.547 1.852,-2.789 1.859,-4.918 l 0.008,-0.391 c 0.006,-0.207 0.01,-0.405 -0.008,-0.602 -0.01,2.124 -0.483,3.366 -1.859,4.911 z m 3.814,-10.255 c -0.021,0.021 -0.036,0.045 -0.061,0.063 -0.117,0.082 -0.25,0.125 -0.387,0.125 -0.152,0 -0.301,-0.051 -0.422,-0.152 -0.242,-0.215 -0.777,-0.375 -1.211,-0.508 -0.195,-0.059 -0.379,-0.117 -0.551,-0.176 -0.441,-0.164 -0.84,-0.363 -1.238,-0.555 -0.191,-0.09 -0.383,-0.188 -0.582,-0.273 -0.559,-0.262 -0.969,-0.398 -1.285,-0.398 -0.012,0 -0.023,0 -0.035,0.004 0,0 -0.168,0.156 -0.125,1.082 0.003,0.067 0.016,0.161 0.022,0.24 0.039,-0.262 0.103,-0.322 0.103,-0.322 0.012,-0.004 0.023,-0.004 0.035,-0.004 0.316,0 0.727,0.137 1.285,0.398 0.199,0.086 0.391,0.184 0.582,0.273 0.398,0.191 0.797,0.391 1.238,0.555 0.172,0.059 0.355,0.117 0.551,0.176 0.434,0.133 0.969,0.293 1.211,0.508 0.121,0.102 0.27,0.152 0.422,0.152 0.137,0 0.27,-0.043 0.387,-0.125 0.246,-0.18 0.328,-0.508 0.203,-0.781 -0.042,-0.097 -0.097,-0.187 -0.142,-0.282 z m -10.541,-4.62 c 0.638,0.2 0.811,0.26 0.937,0.923 0.089,-0.224 0.074,-0.544 0.036,-0.798 -0.133,-0.863 -0.273,-0.906 -0.973,-1.125 -0.297,-0.098 -0.637,-0.203 -1.016,-0.383 -1,-0.467 -1.709,-0.892 -2.002,-1.378 -0.066,0.101 -0.12,0.211 -0.143,0.343 -0.129,0.797 0.723,1.371 2.145,2.035 0.379,0.179 0.719,0.285 1.016,0.383 z m 0.429,14.374 c 0.085,-0.335 0.128,-0.652 0.056,-0.882 -0.074,-0.238 -0.219,-0.316 -0.637,-0.504 -0.234,-0.102 -0.5,-0.223 -0.758,-0.414 C 33.586,28.387 33.285,27.985 32.93,27.473 32.719,27.188 32.563,26.856 32.41,26.535 32.219,26.144 32.023,25.742 31.785,25.523 31.43,25.21 30.922,24.964 30.383,24.699 29.272,24.15 27.91,23.484 27.647,21.915 c -0.02,0.099 -0.041,0.197 -0.045,0.296 -0.074,2.09 1.516,2.863 2.781,3.488 0.539,0.266 1.047,0.512 1.402,0.824 0.238,0.219 0.434,0.621 0.625,1.012 0.152,0.32 0.309,0.652 0.52,0.938 0.355,0.512 0.656,0.914 1.203,1.328 0.258,0.191 0.523,0.313 0.758,0.414 0.337,0.151 0.493,0.235 0.581,0.386 z"
   id="path19"
   inkscape:connector-curvature="0"
   style="fill:#ffffff" />
</svg>