<?xml version="1.0" encoding="UTF-8" standalone="no"?>
<!-- Converted with SVG Converter - Version 0.9.5 (Compiled Mon May 30 09:08:51 2011) - Copyright (C) 2011 Nokia -->

<svg
   xmlns:dc="http://purl.org/dc/elements/1.1/"
   xmlns:cc="http://creativecommons.org/ns#"
   xmlns:rdf="http://www.w3.org/1999/02/22-rdf-syntax-ns#"
   xmlns:svg="http://www.w3.org/2000/svg"
   xmlns="http://www.w3.org/2000/svg"
   xmlns:sodipodi="http://sodipodi.sourceforge.net/DTD/sodipodi-0.dtd"
   xmlns:inkscape="http://www.inkscape.org/namespaces/inkscape"
   width="57"
   x="0px"
   version="1.1"
   y="0px"
   height="57"
   viewBox="0 0 57 57"
   xml:space="preserve"
   id="svg2"
   inkscape:version="0.48.2 r9819"
   sodipodi:docname="tb_home.svg"><metadata
   id="metadata25"><rdf:RDF><cc:Work
       rdf:about=""><dc:format>image/svg+xml</dc:format><dc:type
         rdf:resource="http://purl.org/dc/dcmitype/StillImage" /></cc:Work></rdf:RDF></metadata><defs
   id="defs23" /><sodipodi:namedview
   pagecolor="#ffffff"
   bordercolor="#666666"
   borderopacity="1"
   objecttolerance="10"
   gridtolerance="10"
   guidetolerance="10"
   inkscape:pageopacity="0"
   inkscape:pageshadow="2"
   inkscape:window-width="640"
   inkscape:window-height="480"
   id="namedview21"
   showgrid="false"
   fit-margin-left="-5"
   fit-margin-right="-5"
   fit-margin-top="0"
   fit-margin-bottom="0"
   inkscape:zoom="4.1403509"
   inkscape:cx="28.5"
   inkscape:cy="28.5"
   inkscape:window-x="0"
   inkscape:window-y="0"
   inkscape:window-maximized="0"
   inkscape:current-layer="svg2" />
 <rect
   width="67"
   height="57"
   id="rect4"
   x="-5"
   y="0"
   style="fill:none" />
 <path
   d="m 33.535,51.327 c -0.553,0 -1,-0.448 -1,-1 V 40.105 h -6.979 v 10.222 c 0,0.552 -0.447,1 -1,1 h -8.979 c -1.788,0 -3.243,-1.456 -3.243,-3.245 V 33.995 c 0,-0.267 0.106,-0.521 0.295,-0.709 L 28.33,17.665 c 0.188,-0.187 0.441,-0.291 0.705,-0.291 0.007,0 0.014,0 0.021,0 0.052,0.001 0.103,0.006 0.152,0.015 0.201,0.031 0.395,0.123 0.549,0.276 l 15.706,15.639 c 0.188,0.188 0.294,0.443 0.294,0.709 v 14.068 c 0,1.789 -1.455,3.245 -3.244,3.245 H 33.535 z M 7.782,36.959 c -0.257,0 -0.513,-0.098 -0.708,-0.294 L 3.648,33.229 C 3.46,33.041 3.356,32.787 3.356,32.521 c 0,-0.265 0.106,-0.52 0.294,-0.706 l 8.994,-8.966 V 12.773 c 0,-0.552 0.447,-1 1,-1 h 5.066 c 0.553,0 1,0.448 1,1 v 3.032 l 8.635,-8.607 c 0.195,-0.194 0.45,-0.292 0.706,-0.292 0.256,0 0.511,0.097 0.706,0.292 l 24.684,24.605 c 0.188,0.187 0.294,0.441 0.294,0.706 0,0.266 -0.104,0.52 -0.292,0.708 l -3.435,3.445 c -0.188,0.188 -0.441,0.294 -0.706,0.294 -10e-4,0 -10e-4,0 -0.002,0 -0.265,0 -0.519,-0.105 -0.706,-0.292 L 29.044,16.178 8.488,36.667 c -0.195,0.194 -0.45,0.292 -0.706,0.292 l 0,0 z"
   id="path6"
   inkscape:connector-curvature="0"
   style="fill-opacity:0.15;stroke-opacity:0.15" />
 <path
   d="M 29.052,8.907 18.711,19.214 v -5.441 h -5.066 v 10.491 c -3.166,3.156 -9.288,9.26 -9.288,9.26 l 3.426,3.436 21.254,-21.186 0.006,0.007 V 15.41 h 0.003 v 0.371 L 29.053,15.774 50.302,36.958 53.737,33.513 29.052,8.907 z M 29.045,19.38 H 29.042 L 29.036,19.374 13.335,34.995 v 14.087 c 0,1.235 1.011,2.245 2.243,2.245 h 8.979 V 40.105 h 8.979 v 11.222 h 8.979 c 1.232,0 2.244,-1.01 2.244,-2.245 V 35.014 L 29.053,19.374 29.045,19.38 z"
   id="path8"
   inkscape:connector-curvature="0"
   style="fill-opacity:0.3;stroke-opacity:0.3" />
 <linearGradient
   id="SVGID_1_"
   y1="50.327099"
   x1="34.045898"
   y2="7.9071999"
   gradientUnits="userSpaceOnUse"
   x2="34.045898"
   gradientTransform="translate(-5,0)">
  <stop
   offset="0"
   style="stop-color:#D0CBC5"
   id="stop11" />
  <stop
   offset="0.5031"
   style="stop-color:#FAFCEF"
   id="stop13" />
  <stop
   offset="0.9693"
   style="stop-color:#FFFFFF"
   id="stop15" />
 </linearGradient>
 <path
   d="M 29.052,7.907 18.711,18.214 v -5.441 h -5.066 v 10.491 c -3.166,3.156 -9.288,9.26 -9.288,9.26 l 3.426,3.436 21.254,-21.186 0.006,0.007 V 14.41 h 0.003 v 0.371 L 29.053,14.774 50.302,35.958 53.737,32.513 29.052,7.907 z M 29.045,18.38 H 29.042 L 29.036,18.374 13.335,33.995 v 14.087 c 0,1.235 1.011,2.245 2.243,2.245 h 8.979 V 39.105 h 8.979 v 11.222 h 8.979 c 1.232,0 2.244,-1.01 2.244,-2.245 V 34.014 L 29.053,18.374 29.045,18.38 z"
   id="path17"
   inkscape:connector-curvature="0"
   style="fill:url(#SVGID_1_)" />
 <path
   d="m 18.711,12.773 h -5.066 v 1 h 5.066 v -1 z m -5.066,10.491 c -3.166,3.156 -9.288,9.26 -9.288,9.26 l 0.5,0.502 c 1.513,-1.509 6.162,-6.144 8.788,-8.762 v -1 z M 29.052,7.907 18.711,18.214 v 1 L 29.052,8.907 53.236,33.014 53.736,32.512 29.052,7.907 z M 29.045,18.38 H 29.042 L 29.036,18.374 13.335,33.995 v 1 l 15.701,-15.621 0.006,0.006 h 0.003 l 0.007,-0.006 15.706,15.64 v -1 L 29.052,18.374 29.045,18.38 z"
   id="path19"
   inkscape:connector-curvature="0"
   style="fill:#ffffff" />
</svg>