<?xml version="1.0" encoding="UTF-8"?>
<svg xmlns="http://www.w3.org/2000/svg" xmlns:xlink="http://www.w3.org/1999/xlink" contentScriptType="text/ecmascript" width="30" baseProfile="tiny" zoomAndPan="magnify" contentStyleType="text/css" viewBox="14 19 30 40" height="40" preserveAspectRatio="xMidYMid meet" version="1.1">
    <g>
        <path d="M 17.0 22.0 C 16.447 22.0 16.0 22.448 16.0 23.0 L 16.0 44.0 C 16.0 44.552 16.447 45.0 17.0 45.0 C 17.0 45.0 22.469 45.0 24.0 45.0 C 24.0 46.652 24.0 55.0 24.0 55.0 C 24.0 55.552 24.447 56.0 25.0 56.0 L 41.0 56.0 C 41.553 56.0 42.0 55.552 42.0 55.0 L 42.0 34.0 C 42.0 33.448 41.553 33.0 41.0 33.0 C 41.0 33.0 35.531 33.0 34.0 33.0 C 34.0 31.347 34.0 23.0 34.0 23.0 C 34.0 22.448 33.553 22.0 33.0 22.0 L 17.0 22.0 z " fill-opacity="0.2" stroke-opacity="0.2"/>
        <polygon fill-opacity="0.5" stroke-opacity="0.5" points="17,42 17,44 25,44 25,55 41,55 41,42"/>
        <linearGradient x1="24.8423" gradientTransform="matrix(1 0 0 -1 0.1577 77.8157)" y1="53.165" x2="24.8423" gradientUnits="userSpaceOnUse" y2="-26.5109" xlink:type="simple" xlink:actuate="onLoad" id="XMLID_3_" xlink:show="other">
            <stop stop-color="#ffffff" offset="0"/>
            <stop stop-color="#b2b2c9" offset="1"/>
        </linearGradient>
        <rect x="17" width="16" fill="url(#XMLID_3_)" y="23" height="20"/>
        <polygon fill="#b2b2b2" points="17,43 17,42 17.999,42 17.999,43"/>
        <polygon fill="#b2b2b2" points="17,40.891 17,39.889 18.001,39.889 18.001,40.891"/>
        <polygon fill="#b2b2b2" points="17,38.777 17,37.777 18.001,37.777 18.001,38.777"/>
        <polygon fill="#b2b2b2" points="17,36.666 17,35.665 18.001,35.665 18.001,36.666"/>
        <polygon fill="#b2b2b2" points="17,34.555 17,33.555 18.001,33.555 18.001,34.555"/>
        <polygon fill="#b2b2b2" points="32,34.555 32,33.555 33.001,33.555 33.001,34.555"/>
        <polygon fill="#b2b2b2" points="17,32.444 17,31.443 18.001,31.443 18.001,32.444"/>
        <polygon fill="#b2b2b2" points="17,30.333 17,29.333 18.001,29.333 18.001,30.333"/>
        <polygon fill="#b2b2b2" points="17,28.222 17,27.223 18.001,27.223 18.001,28.222"/>
        <polygon fill="#b2b2b2" points="17,26.112 17,25.111 18.001,25.111 18.001,26.112"/>
        <polygon fill="#b2b2b2" points="31.999,32.444 31.999,31.443 33,31.443 33,32.444"/>
        <polygon fill="#b2b2b2" points="31.999,30.333 31.999,29.333 33,29.333 33,30.333"/>
        <polygon fill="#b2b2b2" points="31.999,28.222 31.999,27.223 33,27.223 33,28.222"/>
        <polygon fill="#b2b2b2" points="31.999,26.112 31.999,25.111 33,25.111 33,26.112"/>
        <polygon fill="#b2b2b2" points="32,24 32,23 33.001,23 33.001,24"/>
        <polygon fill="#b2b2b2" points="29.857,24 29.857,23 30.857,23 30.857,24"/>
        <polygon fill="#b2b2b2" points="27.714,24 27.714,23 28.715,23 28.715,24"/>
        <polygon fill="#b2b2b2" points="25.57,24 25.57,23 26.57,23 26.57,24"/>
        <polygon fill="#b2b2b2" points="23.427,24 23.427,23 24.427,23 24.427,24"/>
        <polygon fill="#b2b2b2" points="21.284,24 21.284,23 22.284,23 22.284,24"/>
        <polygon fill="#b2b2b2" points="19.141,24 19.141,23 20.142,23 20.142,24"/>
        <polygon fill="#b2b2b2" points="23.427,43 23.427,42 24.427,42 24.427,43"/>
        <polygon fill="#b2b2b2" points="21.284,43 21.284,42 22.284,42 22.284,43"/>
        <polygon fill="#b2b2b2" points="19.141,43 19.141,42 20.142,42 20.142,43"/>
        <polygon fill="#b2b2b2" points="17,24.001 17,23.001 17.998,23.001 17.998,24.001"/>
        <rect x="24" y="33" fill-opacity="0.2" width="9" height="10" stroke-opacity="0.2"/>
        <linearGradient x1="32.8418" gradientTransform="matrix(1 0 0 -1 0.1577 77.8157)" y1="42.165" x2="32.8418" gradientUnits="userSpaceOnUse" y2="-37.5109" xlink:type="simple" xlink:actuate="onLoad" id="XMLID_4_" xlink:show="other">
            <stop stop-color="#ffffff" offset="0"/>
            <stop stop-color="#b2b2c9" offset="1"/>
        </linearGradient>
        <rect x="25" width="16" fill="url(#XMLID_4_)" y="34" height="20"/>
        <rect x="28" width="10" fill="#8a8a8a" y="49" height="1"/>
        <rect x="28" width="10" fill="#8a8a8a" y="45" height="1"/>
        <rect x="28" width="10" fill="#8a8a8a" y="41" height="1"/>
        <rect x="28" width="10" fill="#8a8a8a" y="37" height="1"/>
        <rect x="14" width="30" fill="none" y="19" height="40"/>
    </g>
</svg>
