<?xml version="1.0" encoding="utf-8"?>
<!-- Generator: Adobe Illustrator 15.0.0, SVG Export Plug-In . SVG Version: 6.00 Build 0)  -->
<!DOCTYPE svg PUBLIC "-//W3C//DTD SVG 1.1//EN" "http://www.w3.org/Graphics/SVG/1.1/DTD/svg11.dtd">
<svg version="1.1" id="Layer_1" xmlns="http://www.w3.org/2000/svg" xmlns:xlink="http://www.w3.org/1999/xlink" x="0px" y="0px"
	 width="30px" height="30px" viewBox="0 0 30 30" enable-background="new 0 0 30 30" xml:space="preserve">
<g id="DO_NOT_EDIT_-_BOUNDING_BOX">
	<rect id="BOUNDING_BOX" fill="none" width="30" height="30"/>
</g>
<g id="PLACE_YOUR_GRAPHIC_HERE">
	<path opacity="0.3" fill="#FFFFFF" enable-background="new    " d="M11.169,6.996C12.308,6.367,13.609,6,15,6c4.41,0,8,3.588,8,8h4
		c0-6.627-5.373-12-12-12c-2.155,0-4.172,0.576-5.918,1.572L7.514,1l-5.527,9H13L11.169,6.996z M16.986,18l1.844,3.004
		C17.691,21.631,16.391,22,15,22c-4.411,0-8-3.59-8-8H3c0,6.627,5.373,12,12,12c2.16,0,4.18-0.58,5.93-1.58L22.514,27L28,18H16.986z
		"/>
	<path opacity="0.15" fill="#FFFFFF" enable-background="new    " d="M22.514,29c-0.348,0-0.67-0.182-0.853-0.477l-1.097-1.785
		C18.827,27.566,16.922,28,15,28C7.832,28,2,22.168,2,15c0-0.552,0.448-1,1-1h4c0.552,0,1,0.448,1,1c0,3.859,3.14,7,7,7
		c0.822,0,1.622-0.145,2.391-0.432l-1.257-2.045c-0.188-0.31-0.196-0.695-0.021-1.013C16.29,18.195,16.624,18,16.986,18H28
		c0.361,0,0.695,0.195,0.872,0.511c0.177,0.314,0.17,0.701-0.019,1.011l-5.486,9C23.186,28.818,22.863,29,22.516,29
		C22.516,29,22.516,29,22.514,29z M23,16c-0.553,0-1-0.448-1-1c0-3.86-3.141-7-7-7c-0.826,0-1.627,0.145-2.395,0.432l1.249,2.048
		c0.188,0.309,0.195,0.695,0.018,1.01C13.695,11.805,13.361,12,13,12H1.986c-0.362,0-0.696-0.196-0.873-0.512
		c-0.177-0.316-0.169-0.703,0.021-1.012l5.527-9C6.843,1.181,7.166,1,7.514,1h0.001c0.348,0,0.671,0.182,0.853,0.479L9.45,3.253
		C11.182,2.431,13.082,2,15,2c7.168,0,13,5.832,13,13c0,0.552-0.447,1-1,1H23z"/>
	<path opacity="0.15" fill="#FFFFFF" enable-background="new    " d="M11.169,7.996C12.308,7.367,13.609,7,15,7c4.41,0,8,3.588,8,8
		h4c0-6.627-5.373-12-12-12c-2.155,0-4.172,0.576-5.918,1.572L7.514,2l-5.527,9H13L11.169,7.996z M16.986,19l1.844,3.004
		C17.691,22.631,16.391,23,15,23c-4.411,0-8-3.59-8-8H3c0,6.627,5.373,12,12,12c2.16,0,4.18-0.58,5.93-1.58L22.514,28L28,19H16.986z
		"/>
	<path d="M11.169,7.996C12.308,7.367,13.609,7,15,7c4.41,0,8,3.588,8,8h4c0-6.627-5.373-12-12-12c-2.155,0-4.172,0.576-5.918,1.572
		L7.514,2l-5.527,9H13L11.169,7.996z M16.986,19l1.844,3.004C17.691,22.631,16.391,23,15,23c-4.411,0-8-3.59-8-8H3
		c0,6.627,5.373,12,12,12c2.16,0,4.18-0.58,5.93-1.58L22.514,28L28,19H16.986z"/>
</g>
</svg>
